M48
;DRILL file {KiCad 5.0.2-bee76a0~70~ubuntu16.04.1} date ven. 08 mars 2019 17:42:04 CET
;FORMAT={-:-/ absolute / metric / decimal}
FMAT,2
METRIC,TZ
T1C0.300
T2C0.400
T3C0.460
T4C0.500
T5C0.750
T6C0.900
T7C1.000
T8C1.016
T9C1.200
T10C2.100
T11C3.200
%
G90
G05
T1
X40.383Y-74.335
X40.383Y-76.24
X40.383Y-78.145
X40.383Y-80.05
X40.383Y-81.955
X40.383Y-83.86
X40.383Y-85.765
X40.383Y-87.67
X40.383Y-89.575
X40.383Y-91.48
X40.383Y-93.385
X40.383Y-95.29
X40.383Y-97.195
X40.383Y-99.1
X40.383Y-101.005
X40.383Y-102.91
X40.383Y-104.815
X40.383Y-106.72
X40.383Y-108.625
X40.383Y-110.53
X40.383Y-112.435
X40.383Y-114.34
X40.383Y-116.245
X40.383Y-118.785
X40.383Y-120.69
X40.383Y-122.595
X40.383Y-124.5
X40.383Y-126.405
X40.383Y-128.31
X40.383Y-130.215
X40.383Y-132.12
X40.383Y-134.025
X40.383Y-139.105
X40.383Y-141.01
X40.383Y-142.915
X40.383Y-144.82
X40.383Y-146.725
X40.383Y-148.63
X40.383Y-150.535
X40.383Y-152.44
X40.383Y-154.98
X40.383Y-156.885
X40.383Y-158.79
X40.383Y-160.695
X40.383Y-162.6
X40.383Y-164.505
X40.383Y-166.41
X40.383Y-168.315
X40.383Y-170.22
X40.383Y-172.125
X40.383Y-174.03
X40.383Y-175.935
X40.383Y-177.84
X40.383Y-179.745
X40.383Y-181.65
X40.383Y-184.19
X40.383Y-186.095
X40.383Y-188.
X40.383Y-189.905
X40.383Y-191.81
X40.383Y-193.715
X40.383Y-195.62
X40.383Y-197.525
X42.288Y-74.335
X44.193Y-74.335
X46.098Y-74.335
X46.127Y-92.83
X46.733Y-204.51
X48.003Y-74.335
X48.409Y-104.213
X48.525Y-88.385
X48.525Y-90.925
X48.525Y-93.465
X48.638Y-204.51
X49.088Y-190.054
X49.508Y-188.73
X49.508Y-191.27
X49.632Y-69.574
X49.679Y-102.308
X49.908Y-74.335
X49.908Y-76.24
X49.908Y-78.145
X49.908Y-80.05
X49.908Y-83.86
X49.908Y-85.765
X49.908Y-81.955
X50.176Y-106.8
X50.314Y-104.213
X50.524Y-188.73
X50.524Y-191.27
X50.902Y-56.874
X50.949Y-95.958
X50.949Y-100.403
X51.178Y-204.51
X51.584Y-102.308
X51.7Y-124.58
X51.73Y-122.675
X52.172Y-69.574
X52.219Y-104.213
X52.854Y-95.958
X52.854Y-100.403
X52.985Y-87.801
X53.083Y-204.51
X53.442Y-56.874
X53.489Y-102.308
X53.599Y-112.14
X54.712Y-69.574
X54.759Y-95.958
X54.759Y-100.403
X54.89Y-87.801
X54.946Y-110.793
X54.988Y-204.51
X55.474Y-72.241
X55.474Y-77.321
X55.474Y-79.861
X55.474Y-82.401
X55.474Y-74.781
X55.982Y-56.874
X56.293Y-109.446
X56.664Y-95.958
X56.664Y-100.403
X56.78Y-122.675
X56.78Y-124.58
X56.795Y-87.801
X56.893Y-204.51
X57.64Y-108.099
X58.268Y-82.401
X58.522Y-56.874
X58.569Y-95.958
X58.569Y-100.403
X58.59Y-58.52
X58.7Y-87.801
X58.798Y-204.51
X58.984Y-183.704
X59.129Y-178.695
X59.129Y-181.235
X59.523Y-113.912
X60.474Y-95.958
X60.474Y-100.403
X60.605Y-87.801
X60.703Y-204.51
X60.793Y-112.642
X60.88Y-82.401
X61.034Y-187.585
X61.062Y-56.874
X61.744Y-104.213
X62.063Y-111.372
X62.304Y-176.79
X62.379Y-95.958
X62.379Y-100.403
X62.608Y-204.51
X62.926Y-122.01
X62.926Y-127.725
X62.926Y-123.915
X62.926Y-125.82
X62.926Y-129.63
X63.143Y-135.565
X63.143Y-140.645
X63.143Y-147.96
X63.143Y-153.345
X63.162Y-74.977
X63.333Y-110.102
X63.399Y-89.071
X63.574Y-187.585
X63.602Y-56.874
X63.649Y-104.213
X64.201Y-132.72
X64.201Y-133.99
X64.201Y-136.53
X64.201Y-137.8
X64.201Y-139.07
X64.201Y-149.23
X64.201Y-150.5
X64.201Y-151.77
X64.209Y-174.885
X64.209Y-182.505
X64.284Y-95.958
X64.284Y-100.403
X64.349Y-119.754
X64.478Y-82.401
X64.513Y-154.685
X64.513Y-155.955
X64.513Y-204.51
X64.526Y-146.589
X64.526Y-147.732
X64.603Y-108.832
X64.769Y-165.61
X64.769Y-167.194
X65.098Y-143.796
X65.098Y-141.382
X65.098Y-142.779
X65.098Y-142.78
X65.098Y-145.065
X65.098Y-143.795
X65.415Y-147.097
X65.415Y-148.24
X65.471Y-132.72
X65.554Y-104.213
X65.619Y-118.484
X65.783Y-155.955
X65.785Y-164.47
X65.785Y-168.404
X65.836Y-169.734
X65.836Y-170.75
X65.836Y-171.766
X65.873Y-107.562
X65.888Y-72.876
X65.888Y-75.416
X66.114Y-172.98
X66.142Y-56.874
X66.189Y-95.958
X66.189Y-100.403
X66.418Y-134.66
X66.418Y-136.565
X66.418Y-138.47
X66.418Y-149.9
X66.418Y-151.805
X66.418Y-153.71
X66.418Y-204.51
X66.495Y-140.62
X66.495Y-145.065
X66.644Y-178.567
X66.644Y-191.013
X66.889Y-117.214
X66.953Y-157.155
X67.36Y-168.718
X67.36Y-169.734
X67.36Y-170.75
X67.36Y-171.766
X67.459Y-104.213
X67.778Y-107.562
X68.019Y-175.52
X68.094Y-95.958
X68.159Y-115.944
X68.225Y-100.403
X68.242Y-74.977
X68.323Y-134.66
X68.323Y-136.565
X68.323Y-138.47
X68.323Y-149.9
X68.323Y-151.805
X68.323Y-153.71
X68.323Y-204.51
X68.4Y-140.62
X68.4Y-145.065
X68.682Y-56.874
X68.958Y-155.955
X69.008Y-130.335
X69.008Y-132.72
X69.162Y-184.156
X69.162Y-186.696
X69.289Y-175.774
X69.289Y-178.314
X69.289Y-180.854
X69.429Y-114.674
X69.596Y-100.335
X69.662Y-111.608
X69.683Y-104.208
X69.683Y-107.562
X69.999Y-95.958
X70.027Y-167.264
X70.051Y-145.32
X70.154Y-151.238
X70.228Y-204.51
X70.278Y-132.72
X70.317Y-163.658
X70.699Y-113.404
X70.862Y-73.159
X70.932Y-111.608
X71.067Y-144.43
X71.067Y-145.32
X71.106Y-151.238
X71.222Y-56.874
X71.575Y-143.541
X71.829Y-192.665
X71.829Y-195.84
X71.829Y-198.38
X71.829Y-201.555
X71.904Y-95.958
X72.059Y-151.238
X72.083Y-144.43
X72.083Y-145.32
X72.133Y-204.51
X72.591Y-143.541
X72.964Y-112.878
X73.011Y-151.238
X73.099Y-144.43
X73.099Y-145.32
X73.29Y-104.208
X73.322Y-75.03
X73.406Y-100.454
X73.544Y-107.562
X73.607Y-143.541
X73.762Y-56.874
X73.809Y-95.958
X73.837Y-167.264
X73.849Y-123.292
X73.964Y-151.238
X73.98Y-112.878
X73.988Y-175.774
X73.988Y-178.314
X73.988Y-180.854
X73.988Y-183.902
X73.988Y-186.442
X74.038Y-204.51
X74.088Y-132.72
X74.119Y-144.43
X74.189Y-127.61
X74.623Y-145.573
X74.627Y-143.541
X74.673Y-155.955
X74.996Y-112.878
X75.083Y-87.801
X75.358Y-132.72
X75.485Y-82.401
X75.488Y-167.956
X75.639Y-175.52
X75.714Y-95.958
X75.766Y-160.331
X75.794Y-73.003
X75.794Y-75.543
X75.893Y-142.525
X75.897Y-153.447
X75.943Y-135.295
X75.943Y-137.2
X75.943Y-139.105
X75.943Y-141.01
X75.943Y-155.955
X75.943Y-204.51
X76.012Y-112.878
X76.204Y-178.37
X76.204Y-193.102
X76.226Y-87.801
X76.302Y-56.874
X76.48Y-121.456
X76.504Y-168.21
X76.504Y-169.734
X76.504Y-171.258
X76.528Y-159.76
X76.556Y-81.131
X76.628Y-132.72
X76.782Y-153.447
X76.956Y-103.208
X76.956Y-107.708
X76.956Y-100.708
X77.213Y-155.955
X77.294Y-160.331
X77.405Y-123.292
X77.548Y-143.796
X77.548Y-146.463
X77.671Y-153.447
X77.848Y-135.295
X77.848Y-137.2
X77.848Y-139.105
X77.848Y-141.01
X77.848Y-204.51
X78.028Y-169.734
X78.028Y-171.258
X78.079Y-168.337
X78.079Y-174.179
X78.179Y-188.855
X78.207Y-79.099
X78.207Y-80.623
X78.402Y-74.977
X78.433Y-143.796
X78.433Y-146.463
X78.691Y-159.95
X78.766Y-89.071
X78.773Y-152.793
X78.814Y-182.505
X78.842Y-56.874
X79.035Y-164.273
X79.035Y-165.61
X79.035Y-167.194
X79.147Y-82.401
X79.183Y-123.8
X79.289Y-172.909
X79.289Y-174.179
X79.314Y-157.155
X79.322Y-143.796
X79.322Y-146.463
X79.442Y-130.429
X79.449Y-187.585
X79.707Y-159.95
X79.753Y-135.295
X79.753Y-137.2
X79.753Y-139.105
X79.753Y-141.01
X80.01Y-102.108
X80.01Y-107.188
X80.211Y-149.805
X80.211Y-149.805
X80.29Y-89.706
X80.314Y-168.718
X80.388Y-204.51
X80.925Y-91.611
X80.961Y-130.404
X81.001Y-72.876
X81.001Y-75.416
X81.023Y-155.955
X81.092Y-118.974
X81.092Y-119.99
X81.127Y-127.541
X81.254Y-176.404
X81.382Y-56.874
X81.418Y-116.942
X81.584Y-104.329
X81.584Y-105.599
X81.585Y-103.186
X81.658Y-135.295
X81.658Y-137.2
X81.658Y-139.105
X81.658Y-141.01
X81.658Y-142.915
X81.672Y-113.132
X81.708Y-132.72
X81.723Y-124.816
X81.735Y-145.954
X81.735Y-149.805
X81.735Y-151.269
X81.838Y-110.111
X81.838Y-168.709
X81.989Y-187.585
X82.016Y-176.404
X82.293Y-155.955
X82.293Y-204.51
X82.362Y-118.115
X82.651Y-129.319
X82.755Y-160.458
X82.778Y-176.404
X82.854Y-103.694
X82.854Y-104.964
X82.854Y-105.98
X82.978Y-130.335
X82.978Y-132.72
X83.032Y-127.541
X83.14Y-171.639
X83.338Y-90.246
X83.482Y-74.977
X83.563Y-135.295
X83.563Y-137.2
X83.563Y-139.105
X83.563Y-141.01
X83.563Y-142.915
X83.704Y-116.942
X83.771Y-160.458
X83.82Y-102.108
X83.82Y-107.188
X83.876Y-183.704
X83.894Y-178.695
X83.894Y-181.235
X83.922Y-56.874
X83.958Y-97.402
X84.098Y-157.155
X84.124Y-104.329
X84.124Y-105.599
X84.125Y-103.186
X84.198Y-204.51
X84.338Y-110.111
X84.537Y-171.639
X84.556Y-129.319
X84.81Y-176.404
X84.838Y-97.411
X84.893Y-121.768
X84.893Y-125.21
X84.937Y-127.541
X85.033Y-149.265
X85.338Y-90.246
X85.338Y-94.056
X85.394Y-103.694
X85.394Y-104.964
X85.394Y-105.98
X85.572Y-176.404
X85.799Y-179.965
X85.799Y-182.505
X85.799Y-185.045
X85.838Y-97.411
X85.854Y-116.18
X85.953Y-132.875
X86.102Y-73.159
X86.103Y-155.955
X86.103Y-204.51
X86.334Y-176.404
X86.461Y-129.319
X86.462Y-56.874
X86.565Y-152.03
X86.738Y-139.105
X86.738Y-141.01
X86.738Y-142.915
X86.738Y-144.82
X86.842Y-127.541
X87.223Y-132.875
X87.223Y-134.145
X87.373Y-150.761
X87.373Y-154.685
X87.373Y-155.955
X87.376Y-102.108
X87.376Y-107.188
X87.487Y-147.817
X87.559Y-168.464
X87.604Y-164.974
X88.008Y-204.51
X88.366Y-129.319
X88.545Y-90.341
X88.562Y-74.977
X88.643Y-135.295
X88.643Y-140.375
X88.643Y-153.075
X88.874Y-166.244
X88.966Y-184.674
X89.002Y-56.874
X89.656Y-108.206
X89.656Y-100.208
X89.656Y-102.17
X89.656Y-101.208
X89.8Y-119.268
X89.913Y-204.51
X89.942Y-87.801
X90.09Y-82.401
X90.656Y-188.73
X90.656Y-191.27
X91.034Y-73.003
X91.034Y-75.543
X91.288Y-81.126
X91.288Y-88.817
X91.438Y-117.958
X91.542Y-56.874
X91.672Y-188.73
X91.672Y-191.27
X91.72Y-94.151
X91.72Y-96.056
X91.818Y-204.51
X92.243Y-190.054
X92.762Y-100.708
X92.812Y-79.099
X92.812Y-80.623
X92.848Y-119.268
X92.863Y-88.962
X92.938Y-127.16
X92.938Y-129.319
X92.938Y-130.97
X92.938Y-132.875
X93.014Y-172.98
X93.014Y-177.146
X93.014Y-182.632
X93.038Y-170.662
X93.038Y-171.678
X93.498Y-108.407
X93.554Y-167.321
X93.573Y-111.285
X93.642Y-74.977
X93.723Y-204.51
X93.783Y-121.768
X93.879Y-82.401
X94.04Y-152.973
X94.054Y-170.662
X94.054Y-171.678
X94.082Y-56.874
X94.26Y-94.151
X94.26Y-118.916
X94.282Y-141.503
X94.284Y-172.98
X94.284Y-174.098
X94.284Y-175.114
X94.284Y-176.13
X94.284Y-177.146
X94.284Y-182.632
X94.284Y-183.75
X94.284Y-184.766
X94.284Y-185.782
X94.284Y-186.798
X94.308Y-154.865
X94.345Y-145.023
X94.345Y-147.817
X94.345Y-149.087
X94.843Y-127.16
X94.843Y-129.319
X94.843Y-130.97
X94.843Y-132.875
X94.943Y-154.103
X95.056Y-152.973
X95.07Y-171.678
X95.478Y-111.285
X95.5Y-202.697
X95.53Y-97.326
X95.57Y-196.855
X95.578Y-154.865
X96.072Y-152.973
X96.086Y-171.678
X96.213Y-154.103
X96.241Y-72.876
X96.241Y-75.416
X96.622Y-56.874
X96.748Y-121.445
X96.748Y-123.35
X96.748Y-125.255
X96.748Y-127.16
X96.748Y-129.319
X96.8Y-96.056
X96.848Y-154.865
X97.102Y-171.678
X97.138Y-152.973
X97.207Y-100.708
X97.207Y-103.708
X97.383Y-111.285
X97.435Y-108.407
X97.435Y-118.916
X97.483Y-154.103
X97.856Y-196.855
X97.906Y-130.483
X97.906Y-131.499
X98.07Y-94.786
X98.07Y-97.961
X98.118Y-154.865
X98.118Y-171.678
X98.281Y-152.973
X98.653Y-121.445
X98.653Y-123.35
X98.653Y-125.255
X98.653Y-127.16
X98.653Y-129.319
X98.722Y-74.977
X98.922Y-130.483
X98.922Y-131.499
X99.162Y-56.874
X99.288Y-111.285
X99.332Y-137.947
X99.332Y-138.963
X99.34Y-93.516
X99.515Y-153.989
X99.679Y-145.023
X99.679Y-147.817
X99.679Y-149.087
X99.938Y-130.483
X99.975Y-96.056
X100.073Y-203.875
X100.094Y-138.455
X100.142Y-196.855
X100.163Y-108.407
X100.186Y-151.499
X100.558Y-123.35
X100.558Y-125.255
X100.558Y-127.16
X100.558Y-129.319
X100.61Y-92.246
X100.61Y-118.916
X100.954Y-130.483
X101.11Y-138.455
X101.193Y-111.285
X101.293Y-165.279
X101.293Y-166.549
X101.293Y-167.819
X101.293Y-169.089
X101.342Y-73.159
X101.343Y-201.97
X101.702Y-56.874
X101.837Y-146.546
X101.88Y-90.976
X102.126Y-138.455
X102.463Y-125.255
X102.463Y-127.16
X102.463Y-129.319
X102.515Y-120.821
X102.613Y-203.875
X102.853Y-146.546
X102.936Y-196.855
X103.098Y-111.285
X103.15Y-89.706
X103.301Y-181.164
X103.325Y-153.989
X103.785Y-92.246
X103.802Y-74.977
X103.869Y-146.546
X104.2Y-151.576
X104.242Y-56.874
X104.25Y-137.91
X104.25Y-138.926
X104.25Y-139.942
X104.368Y-127.16
X104.368Y-129.319
X104.42Y-122.726
X104.468Y-158.929
X104.468Y-162.104
X104.468Y-163.374
X104.468Y-165.279
X104.468Y-166.549
X104.468Y-167.819
X104.468Y-169.089
X104.5Y-202.697
X104.695Y-82.401
X104.801Y-87.801
X104.885Y-146.546
X105.003Y-111.285
X105.055Y-118.916
X105.222Y-196.855
X105.266Y-137.91
X105.266Y-138.926
X105.266Y-139.942
X105.267Y-147.817
X105.267Y-149.087
X105.66Y-81.414
X105.69Y-90.341
X105.841Y-181.164
X105.901Y-146.546
X106.028Y-151.499
X106.261Y-82.381
X106.273Y-129.319
X106.325Y-124.631
X106.782Y-56.874
X106.782Y-59.414
X106.782Y-64.494
X106.782Y-69.574
X106.782Y-72.114
X106.782Y-74.654
X106.782Y-77.194
X106.782Y-61.954
X106.782Y-67.034
X106.782Y-79.734
X106.917Y-146.546
X107.008Y-135.415
X107.008Y-170.662
X107.008Y-171.678
X107.508Y-196.855
X107.595Y-88.436
X107.619Y-107.123
X108.024Y-170.662
X108.024Y-171.678
X108.137Y-149.544
X108.178Y-129.319
X108.178Y-130.97
X108.23Y-122.091
X108.381Y-181.164
X108.405Y-154.865
X108.913Y-141.53
X108.963Y-204.51
X109.032Y-190.054
X109.04Y-154.103
X109.04Y-171.678
X109.143Y-107.123
X109.153Y-149.544
X109.452Y-188.73
X109.452Y-191.27
X109.675Y-154.865
X110.056Y-171.678
X110.083Y-129.319
X110.083Y-130.97
X110.093Y-145.277
X110.093Y-147.817
X110.135Y-88.436
X110.169Y-149.544
X110.31Y-154.103
X110.468Y-188.73
X110.468Y-191.27
X110.667Y-107.123
X110.706Y-58.124
X110.706Y-60.029
X110.706Y-62.188
X110.706Y-64.093
X110.706Y-65.998
X110.706Y-67.903
X110.706Y-69.808
X110.706Y-71.713
X110.868Y-204.51
X110.921Y-181.164
X110.945Y-154.865
X111.072Y-171.678
X111.087Y-76.539
X111.087Y-78.444
X111.087Y-80.476
X111.087Y-84.159
X111.087Y-86.191
X111.235Y-149.544
X111.39Y-116.942
X111.58Y-154.103
X111.988Y-129.319
X112.088Y-171.678
X112.191Y-102.043
X112.191Y-107.123
X112.215Y-154.865
X112.378Y-149.544
X112.38Y-115.926
X112.611Y-71.713
X112.638Y-131.499
X112.675Y-88.436
X112.865Y-76.539
X112.992Y-66.506
X112.992Y-68.411
X113.119Y-82.853
X113.408Y-204.51
X113.461Y-181.164
X113.485Y-153.989
X113.654Y-130.483
X113.654Y-131.499
X113.715Y-102.043
X113.715Y-107.123
X113.893Y-127.16
X113.893Y-129.319
X114.064Y-137.947
X114.064Y-138.963
X114.643Y-71.713
X114.67Y-130.483
X114.731Y-110.497
X114.77Y-58.124
X114.77Y-60.029
X114.77Y-82.762
X114.77Y-84.032
X114.826Y-138.455
X115.173Y-145.277
X115.173Y-147.817
X115.173Y-149.087
X115.215Y-88.436
X115.239Y-102.043
X115.239Y-107.123
X115.263Y-165.279
X115.263Y-166.549
X115.263Y-167.819
X115.263Y-169.089
X115.313Y-204.51
X115.686Y-130.483
X115.798Y-127.16
X115.798Y-129.319
X115.842Y-138.455
X116.001Y-181.164
X116.038Y-86.676
X116.038Y-117.087
X116.04Y-82.762
X116.04Y-84.032
X116.294Y-76.539
X116.351Y-143.752
X116.675Y-71.713
X116.763Y-102.043
X116.763Y-107.123
X116.858Y-138.455
X116.978Y-123.305
X117.041Y-153.989
X117.068Y-134.145
X117.068Y-135.415
X117.168Y-158.929
X117.218Y-204.51
X117.31Y-82.762
X117.31Y-84.032
X117.367Y-143.752
X117.703Y-127.16
X117.703Y-129.319
X117.755Y-88.436
X118.17Y-151.576
X118.199Y-76.539
X118.438Y-158.929
X118.438Y-162.104
X118.438Y-163.374
X118.438Y-165.279
X118.438Y-166.549
X118.438Y-167.819
X118.438Y-169.099
X118.474Y-143.752
X118.541Y-181.164
X118.668Y-104.329
X118.668Y-105.599
X118.668Y-111.695
X118.668Y-112.965
X118.668Y-114.235
X118.669Y-103.186
X118.707Y-71.713
X118.982Y-137.148
X118.982Y-138.164
X118.982Y-139.18
X119.073Y-178.695
X119.073Y-183.775
X119.123Y-204.51
X119.342Y-58.124
X119.342Y-60.029
X119.342Y-63.204
X119.342Y-65.109
X119.49Y-143.752
X119.608Y-127.16
X119.608Y-129.319
X119.66Y-123.996
X119.859Y-85.721
X119.938Y-103.694
X119.938Y-104.964
X119.938Y-105.98
X119.938Y-112.33
X119.938Y-113.6
X119.938Y-114.87
X119.998Y-137.148
X119.998Y-138.164
X119.998Y-139.18
X120.104Y-76.539
X120.295Y-88.436
X120.506Y-143.752
X120.506Y-151.499
X120.507Y-145.277
X120.507Y-147.817
X120.507Y-149.087
X120.978Y-187.585
X120.993Y-71.713
X121.028Y-204.51
X121.081Y-171.004
X121.081Y-176.084
X121.208Y-104.329
X121.208Y-105.599
X121.208Y-111.695
X121.208Y-112.965
X121.208Y-114.235
X121.209Y-103.186
X121.513Y-127.16
X121.513Y-129.319
X121.522Y-143.752
X121.565Y-117.011
X122.009Y-76.539
X122.03Y-123.686
X122.248Y-176.79
X122.39Y-62.188
X122.39Y-64.093
X122.39Y-65.998
X122.39Y-67.903
X122.478Y-103.694
X122.478Y-104.964
X122.478Y-112.33
X122.478Y-113.6
X122.478Y-114.87
X122.479Y-105.98
X122.821Y-84.644
X122.833Y-135.565
X122.833Y-140.645
X122.933Y-204.51
X123.418Y-127.16
X123.47Y-80.816
X123.47Y-82.721
X123.518Y-187.585
X123.773Y-84.644
X123.891Y-132.72
X123.891Y-133.99
X123.891Y-136.53
X123.891Y-137.8
X123.891Y-139.07
X123.891Y-149.23
X123.891Y-151.516
X123.914Y-76.539
X124.105Y-117.011
X124.153Y-174.885
X124.153Y-182.505
X124.203Y-154.685
X124.203Y-155.955
X124.216Y-146.589
X124.216Y-147.732
X124.685Y-88.294
X124.713Y-165.61
X124.713Y-167.194
X124.726Y-84.644
X124.788Y-141.382
X124.788Y-142.779
X124.788Y-145.065
X124.788Y-143.795
X124.838Y-204.51
X125.105Y-147.097
X125.105Y-148.24
X125.161Y-132.72
X125.473Y-155.955
X125.729Y-164.47
X125.729Y-168.404
X125.756Y-121.964
X125.78Y-169.734
X125.78Y-170.75
X125.78Y-171.766
X125.819Y-76.539
X125.846Y-109.02
X126.058Y-172.98
X126.108Y-134.66
X126.108Y-136.565
X126.108Y-138.47
X126.108Y-151.551
X126.108Y-154.472
X126.185Y-140.62
X126.185Y-145.065
X126.288Y-128.399
X126.588Y-178.567
X126.588Y-191.013
X126.643Y-157.155
X126.743Y-204.51
X126.989Y-110.671
X126.989Y-107.369
X127.304Y-169.734
X127.304Y-170.75
X127.304Y-171.766
X127.37Y-102.035
X127.37Y-104.829
X127.37Y-113.211
X127.37Y-116.005
X127.724Y-76.539
X127.774Y-85.721
X127.963Y-175.52
X128.013Y-134.66
X128.013Y-136.565
X128.013Y-138.47
X128.013Y-151.551
X128.013Y-154.472
X128.09Y-140.62
X128.09Y-145.065
X128.296Y-121.964
X128.55Y-89.071
X128.64Y-102.035
X128.64Y-104.829
X128.64Y-113.211
X128.64Y-116.005
X128.648Y-155.955
X128.648Y-204.51
X128.698Y-130.335
X128.698Y-132.72
X128.852Y-175.901
X128.852Y-178.441
X128.852Y-180.854
X128.852Y-183.775
X128.852Y-186.315
X129.629Y-76.539
X129.741Y-145.32
X129.844Y-151.238
X129.968Y-130.335
X129.968Y-132.72
X129.971Y-167.264
X130.261Y-163.658
X130.455Y-89.071
X130.553Y-204.51
X130.695Y-84.644
X130.757Y-144.43
X130.757Y-145.32
X130.772Y-77.428
X130.796Y-151.238
X130.836Y-121.964
X131.265Y-143.541
X131.368Y-128.399
X131.648Y-84.644
X131.749Y-151.238
X131.773Y-144.43
X131.773Y-145.32
X131.773Y-192.665
X131.773Y-195.84
X131.773Y-198.38
X131.773Y-201.555
X132.069Y-111.941
X132.069Y-106.099
X132.281Y-143.541
X132.458Y-204.51
X132.6Y-84.644
X132.6Y-88.9
X132.677Y-77.428
X132.701Y-151.238
X132.789Y-144.43
X132.789Y-145.32
X133.297Y-143.541
X133.376Y-121.964
X133.539Y-123.292
X133.654Y-151.238
X133.778Y-132.72
X133.781Y-167.264
X133.809Y-144.43
X133.879Y-127.61
X133.932Y-175.901
X133.932Y-178.441
X133.932Y-180.854
X133.932Y-183.775
X133.932Y-186.315
X134.265Y-87.801
X134.313Y-145.573
X134.317Y-143.541
X134.363Y-155.955
X134.363Y-204.51
X135.048Y-132.72
X135.117Y-106.099
X135.117Y-111.941
X135.432Y-167.956
X135.583Y-142.525
X135.583Y-175.52
X135.587Y-153.447
X135.633Y-135.295
X135.633Y-137.2
X135.633Y-139.105
X135.633Y-141.01
X135.633Y-155.955
X135.71Y-160.331
X135.916Y-121.964
X136.148Y-178.37
X136.148Y-193.102
X136.17Y-87.801
X136.268Y-204.51
X136.318Y-132.72
X136.448Y-168.464
X136.448Y-169.734
X136.448Y-171.258
X136.472Y-153.447
X136.472Y-159.76
X136.903Y-155.955
X137.043Y-109.02
X137.095Y-123.292
X137.238Y-143.796
X137.238Y-146.463
X137.238Y-160.331
X137.299Y-63.496
X137.299Y-67.941
X137.299Y-71.116
X137.299Y-76.831
X137.299Y-80.006
X137.299Y-82.546
X137.361Y-153.447
X137.426Y-74.451
X137.53Y-103.94
X137.53Y-114.1
X137.538Y-135.295
X137.538Y-137.2
X137.538Y-139.105
X137.538Y-141.01
X137.567Y-87.931
X137.972Y-169.734
X137.972Y-171.258
X138.023Y-168.337
X138.023Y-174.275
X138.123Y-143.796
X138.123Y-146.463
X138.123Y-188.855
X138.173Y-204.51
X138.456Y-121.964
X138.472Y-153.029
X138.579Y-88.94
X138.635Y-159.95
X138.758Y-182.505
X138.8Y-103.94
X138.8Y-114.1
X138.873Y-123.8
X138.979Y-164.273
X138.979Y-165.61
X138.979Y-167.194
X139.012Y-143.796
X139.012Y-146.463
X139.132Y-130.429
X139.233Y-172.909
X139.343Y-157.155
X139.393Y-187.585
X139.443Y-135.295
X139.443Y-137.2
X139.443Y-139.105
X139.443Y-141.01
X139.651Y-159.95
X139.816Y-112.195
X139.816Y-113.465
X139.901Y-149.805
X140.07Y-105.845
X140.07Y-109.02
X140.07Y-110.29
X140.07Y-104.575
X140.07Y-107.75
X140.078Y-204.51
X140.154Y-88.9
X140.258Y-168.718
X140.631Y-150.743
X140.651Y-130.404
X140.665Y-172.909
X140.713Y-155.955
X140.921Y-159.95
X141.109Y-58.416
X141.109Y-60.956
X141.109Y-82.546
X141.198Y-176.404
X141.29Y-121.964
X141.34Y-113.084
X141.34Y-114.354
X141.34Y-107.75
X141.34Y-109.02
X141.34Y-110.29
X141.34Y-111.814
X141.348Y-135.295
X141.348Y-137.2
X141.348Y-139.105
X141.348Y-141.01
X141.348Y-142.915
X141.398Y-132.72
X141.413Y-124.816
X141.425Y-145.954
X141.425Y-149.805
X141.782Y-168.718
X141.933Y-187.585
X141.937Y-159.95
X141.96Y-176.404
X141.983Y-155.955
X142.61Y-109.02
X142.61Y-110.29
X142.61Y-107.75
X142.61Y-111.814
X142.61Y-113.084
X142.61Y-114.354
X142.618Y-204.51
X142.668Y-130.335
X142.668Y-132.72
X142.699Y-160.458
X142.722Y-176.404
X142.918Y-118.865
X143.253Y-135.295
X143.253Y-137.2
X143.253Y-139.105
X143.253Y-141.01
X143.253Y-142.915
X143.459Y-168.718
X143.715Y-160.458
X143.788Y-157.155
X143.838Y-178.695
X143.838Y-181.108
X143.838Y-183.775
X143.88Y-109.02
X143.88Y-110.29
X143.88Y-107.75
X143.88Y-111.814
X143.88Y-113.084
X143.967Y-164.115
X144.196Y-120.204
X144.196Y-121.22
X144.196Y-122.236
X144.221Y-172.497
X144.523Y-204.51
X144.538Y-77.466
X144.538Y-78.99
X144.723Y-149.439
X144.754Y-176.404
X144.919Y-58.416
X144.919Y-60.956
X145.427Y-69.371
X145.458Y-120.204
X145.458Y-122.236
X145.516Y-176.404
X145.643Y-132.875
X145.743Y-179.965
X145.743Y-182.505
X145.743Y-185.045
X145.793Y-155.955
X145.862Y-147.059
X145.862Y-147.89
X145.862Y-148.71
X145.973Y-164.974
X146.128Y-108.515
X146.189Y-66.036
X146.278Y-176.404
X146.383Y-116.699
X146.383Y-124.065
X146.428Y-204.51
X146.682Y-139.613
X146.682Y-141.518
X146.682Y-143.423
X146.682Y-145.328
X146.855Y-92.852
X146.855Y-95.392
X146.855Y-97.932
X146.855Y-100.472
X146.855Y-103.012
X146.855Y-105.552
X146.856Y-87.946
X146.885Y-82.546
X146.913Y-132.875
X146.913Y-134.145
X147.063Y-154.685
X147.063Y-155.955
X147.144Y-108.515
X147.386Y-147.949
X147.399Y-116.699
X147.399Y-124.065
X147.548Y-164.974
X147.548Y-167.514
X147.652Y-109.531
X147.778Y-170.339
X147.778Y-171.639
X147.907Y-117.715
X147.907Y-125.081
X148.16Y-108.515
X148.333Y-204.51
X148.415Y-116.699
X148.415Y-124.065
X148.54Y-166.244
X148.91Y-184.674
X149.176Y-108.515
X149.364Y-82.546
X149.431Y-116.699
X149.431Y-124.065
X149.91Y-110.806
X149.91Y-119.188
X149.91Y-127.57
X150.166Y-63.98
X150.238Y-204.51
X150.492Y-135.549
X150.492Y-140.629
X150.492Y-147.949
X150.492Y-153.329
X150.6Y-188.73
X150.6Y-191.27
X150.672Y-166.305
X150.672Y-171.131
X150.873Y-88.305
X150.926Y-110.806
X150.926Y-119.188
X150.926Y-127.57
X151.142Y-74.451
X151.314Y-79.215
X151.616Y-188.73
X151.616Y-191.27
X151.635Y-92.72
X151.635Y-97.91
X151.635Y-102.99
X151.942Y-110.806
X151.942Y-119.188
X151.942Y-127.57
X152.143Y-204.51
X152.187Y-190.054
X152.778Y-88.305
X152.958Y-172.98
X152.958Y-177.146
X152.958Y-182.632
X153.174Y-58.416
X153.174Y-60.956
X153.809Y-71.751
X154.048Y-204.51
X154.228Y-172.98
X154.228Y-174.098
X154.228Y-175.114
X154.228Y-176.13
X154.228Y-177.146
X154.228Y-182.632
X154.228Y-183.75
X154.228Y-184.766
X154.228Y-185.782
X154.228Y-186.798
X154.683Y-88.305
X155.079Y-74.291
X155.953Y-204.51
X156.349Y-82.546
X156.588Y-88.305
X156.984Y-58.416
X156.984Y-60.956
X156.984Y-65.401
X158.493Y-88.305
X159.128Y-92.72
X159.128Y-97.8
X159.128Y-102.88
X159.524Y-65.401
X159.524Y-82.546
X160.398Y-88.305
X161.033Y-92.72
X161.033Y-97.8
X161.033Y-102.88
X161.033Y-179.11
X161.033Y-181.015
X162.303Y-88.305
X162.303Y-90.21
X162.303Y-95.29
X162.303Y-100.37
X162.303Y-106.085
X162.303Y-107.99
X162.303Y-109.895
X162.303Y-111.8
X162.303Y-113.705
X162.303Y-115.61
X162.303Y-118.15
X162.303Y-120.055
X162.303Y-121.96
X162.303Y-123.865
X162.303Y-125.77
X162.303Y-127.675
X162.303Y-129.58
X162.303Y-131.485
X162.303Y-133.39
X162.303Y-139.74
X162.303Y-141.645
X162.303Y-143.55
X162.303Y-145.455
X162.303Y-147.36
X162.303Y-149.265
X162.303Y-151.17
X162.303Y-153.075
X162.303Y-155.615
X162.303Y-157.52
X162.303Y-159.425
X162.303Y-161.33
X162.303Y-163.235
X162.303Y-165.14
X162.303Y-167.045
X162.303Y-168.95
X162.303Y-170.855
X162.303Y-172.76
X162.303Y-174.665
X162.303Y-176.57
X162.303Y-178.475
X162.303Y-180.38
X162.303Y-182.285
X162.303Y-184.825
X162.303Y-186.73
X162.303Y-188.635
X162.303Y-190.54
X162.303Y-192.445
X162.303Y-194.35
X162.303Y-196.255
X162.303Y-198.16
X162.699Y-57.146
X162.699Y-60.956
X162.699Y-64.131
X162.699Y-67.306
X162.699Y-76.196
X162.699Y-79.371
X162.699Y-82.546
X71.329Y-164.86
X71.329Y-165.86
X71.829Y-165.36
X72.329Y-164.86
X72.329Y-165.86
X111.588Y-135.696
X111.588Y-136.696
X112.588Y-135.696
X112.588Y-136.696
X133.214Y-108.27
X133.214Y-109.02
X133.214Y-109.77
X133.964Y-108.27
X133.964Y-109.02
X133.964Y-109.77
X134.714Y-108.27
X134.714Y-109.02
X134.714Y-109.77
X100.293Y-155.639
X100.293Y-157.139
X101.293Y-156.389
X102.293Y-157.139
X102.309Y-155.627
X114.27Y-155.639
X114.27Y-157.139
X115.27Y-156.389
X116.27Y-157.139
X116.286Y-155.627
X96.957Y-135.693
X96.957Y-136.693
X97.957Y-135.693
X97.957Y-136.693
X131.273Y-164.86
X131.273Y-165.86
X131.773Y-165.36
X132.273Y-164.86
X132.273Y-165.86
T2
X60.883Y-177.989
X69.129Y-169.48
X69.138Y-162.114
X70.704Y-169.48
X72.954Y-169.48
X74.472Y-162.114
X74.529Y-169.48
X81.916Y-177.989
X120.827Y-177.989
X129.073Y-169.48
X129.082Y-162.114
X130.648Y-169.48
X132.898Y-169.48
X134.416Y-162.114
X134.473Y-169.48
X141.86Y-177.989
T3
X150.635Y-62.425
X159.395Y-62.425
X138.635Y-62.425
X147.395Y-62.425
X112.635Y-62.205
X121.395Y-62.205
T4
X156.6Y-136.
X157.303Y-134.303
X157.303Y-137.697
X159.Y-133.6
X159.Y-138.4
X160.697Y-134.303
X160.697Y-137.697
X161.4Y-136.
X41.6Y-136.
X42.303Y-134.303
X42.303Y-137.697
X44.Y-133.6
X44.Y-138.4
X45.697Y-134.303
X45.697Y-137.697
X46.4Y-136.
X41.615Y-200.985
X42.318Y-199.288
X42.318Y-202.682
X44.015Y-198.585
X44.015Y-203.385
X45.712Y-199.288
X45.712Y-202.682
X46.415Y-200.985
X156.615Y-200.985
X157.318Y-199.288
X157.318Y-202.682
X159.015Y-198.585
X159.015Y-203.385
X160.712Y-199.288
X160.712Y-202.682
X161.415Y-200.985
X156.6Y-71.
X157.303Y-69.303
X157.303Y-72.697
X159.Y-68.6
X159.Y-73.4
X160.697Y-69.303
X160.697Y-72.697
X161.4Y-71.
X41.615Y-60.985
X42.318Y-59.288
X42.318Y-62.682
X44.015Y-58.585
X44.015Y-63.385
X45.712Y-59.288
X45.712Y-62.682
X46.415Y-60.985
T5
X158.Y-116.
X158.Y-118.
X158.Y-120.
X158.Y-122.
X158.Y-124.
X158.Y-126.
X156.Y-79.
X156.Y-81.
T6
X117.Y-193.5
X119.54Y-193.5
X85.985Y-193.515
X88.525Y-193.515
X146.Y-193.5
X148.54Y-193.5
X56.985Y-193.485
X59.525Y-193.485
T7
X64.415Y-58.525
X64.415Y-61.065
X66.955Y-58.525
X66.955Y-61.065
X69.495Y-58.525
X69.495Y-61.065
X72.035Y-58.525
X72.035Y-61.065
X74.575Y-58.525
X74.575Y-61.065
X77.115Y-58.525
X77.115Y-61.065
X50.43Y-125.85
X50.43Y-128.39
X52.97Y-125.85
X52.97Y-128.39
X55.51Y-125.85
X55.51Y-128.39
X58.05Y-125.85
X58.05Y-128.39
X42.81Y-96.64
X42.81Y-99.18
X42.81Y-101.72
X42.81Y-104.26
X42.81Y-106.8
X42.81Y-109.34
X42.81Y-111.88
X42.81Y-114.42
X42.81Y-116.96
X42.81Y-119.5
X45.35Y-96.64
X45.35Y-99.18
X45.35Y-101.72
X45.35Y-104.26
X45.35Y-106.8
X45.35Y-109.34
X45.35Y-111.88
X45.35Y-114.42
X45.35Y-116.96
X45.35Y-119.5
X87.275Y-58.52
X87.275Y-61.06
X89.815Y-58.52
X89.815Y-61.06
X92.355Y-58.52
X92.355Y-61.06
X94.895Y-58.52
X94.895Y-61.06
X97.435Y-58.52
X97.435Y-61.06
X99.975Y-58.52
X99.975Y-61.06
X102.515Y-58.52
X102.515Y-61.06
X105.055Y-58.52
X105.055Y-61.06
X107.508Y-175.449
X110.048Y-175.449
X112.588Y-175.449
X115.128Y-175.449
X155.11Y-91.56
X155.11Y-94.1
X155.11Y-96.64
X155.11Y-99.18
X155.11Y-101.72
X155.11Y-104.26
X155.11Y-106.8
X157.65Y-91.56
X157.65Y-94.1
X157.65Y-96.64
X157.65Y-99.18
X157.65Y-101.72
X157.65Y-104.26
X157.65Y-106.8
X61.875Y-66.14
X61.875Y-68.68
X64.415Y-66.14
X64.415Y-68.68
X66.955Y-66.14
X66.955Y-68.68
X69.495Y-66.14
X69.495Y-68.68
X72.035Y-66.14
X72.035Y-68.68
X74.575Y-66.14
X74.575Y-68.68
X77.115Y-66.14
X77.115Y-68.68
X79.655Y-66.14
X79.655Y-68.68
X82.195Y-66.14
X82.195Y-68.68
X84.735Y-66.14
X84.735Y-68.68
X87.275Y-66.14
X87.275Y-68.68
X89.815Y-66.14
X89.815Y-68.68
X92.355Y-66.14
X92.355Y-68.68
X94.895Y-66.14
X94.895Y-68.68
X97.435Y-66.14
X97.435Y-68.68
X99.975Y-66.14
X99.975Y-68.68
X102.515Y-66.14
X102.515Y-68.68
X105.055Y-66.14
X105.055Y-68.68
X50.445Y-61.065
X52.985Y-61.065
X55.525Y-61.065
X58.065Y-61.065
T8
X42.81Y-76.32
X42.81Y-78.86
X42.81Y-81.4
X42.81Y-83.94
X42.81Y-86.48
X45.35Y-76.32
X45.35Y-78.86
X45.35Y-81.4
X45.35Y-83.94
X45.35Y-86.48
T10
X111.92Y-198.58
X122.08Y-198.58
X80.905Y-198.595
X91.065Y-198.595
X140.92Y-198.58
X151.08Y-198.58
X51.905Y-198.565
X62.065Y-198.565
T11
X44.Y-136.
X159.Y-71.
X44.015Y-60.985
X159.Y-136.
X44.015Y-200.985
X159.015Y-200.985
T9
X130.515Y-59.985G85X129.515Y-59.985
G05
X130.015Y-64.985G85X130.015Y-63.985
G05
T0
M30
